<svg width="450" height="137" viewBox="0 0 450 137" fill="none" xmlns="http://www.w3.org/2000/svg">
<g style="mix-blend-mode:multiply">
<path d="M95.0758 64.152C95.0758 74.5262 93.389 83.5527 90.0153 91.2316C86.6417 98.8597 81.9646 104.988 75.984 109.615L94.5391 124.109L79.8944 137L56.1254 118.006C53.4163 118.464 50.6049 118.693 47.6913 118.693C38.4393 118.693 30.184 116.481 22.9255 112.056C15.6671 107.632 10.0443 101.326 6.05725 93.1386C2.0702 84.9003 0.051116 75.4415 0 64.7623L0 59.27C0 48.3365 1.96797 38.7251 5.9039 30.436C9.89095 22.096 15.4882 15.7138 22.6955 11.2895C29.954 6.8144 38.2348 4.57684 47.5379 4.57684C56.841 4.57684 65.0963 6.8144 72.3036 11.2895C79.5621 15.7138 85.1593 22.096 89.0952 30.436C93.0823 38.7251 95.0758 48.3111 95.0758 59.1938V64.152ZM71.7669 59.1175C71.7669 47.472 69.6712 38.6234 65.4796 32.5718C61.2881 26.5202 55.3075 23.4944 47.5379 23.4944C39.8194 23.4944 33.8644 26.4948 29.6729 32.4955C25.4813 38.4454 23.36 47.1923 23.3089 58.7361V64.152C23.3089 75.4924 25.4047 84.2901 29.5962 90.5451C33.7877 96.8001 39.8194 99.9276 47.6913 99.9276C55.4098 99.9276 61.3392 96.9272 65.4796 90.9265C69.62 84.8749 71.7158 76.0772 71.7669 64.5334V59.1175Z" fill="#00FFC4"/>
<path d="M160.172 108.776C154.703 115.387 147.137 118.693 137.477 118.693C128.582 118.693 121.784 116.15 117.081 111.065C112.43 105.979 110.053 98.5291 109.951 88.7144L109.951 34.6314H132.109V87.9516C132.109 96.5458 136.045 100.843 143.917 100.843C151.431 100.843 156.594 98.2494 159.405 93.0624V34.6314H181.641L181.641 117.167L160.785 117.167L160.172 108.776Z" fill="#00FFC4"/>
<path d="M246.43 117.167C245.408 115.184 244.667 112.717 244.207 109.768C238.84 115.718 231.862 118.693 223.275 118.693C215.147 118.693 208.4 116.353 203.033 111.675C197.717 106.996 195.059 101.097 195.059 93.9777C195.059 85.2309 198.305 78.5182 204.796 73.8396C211.339 69.1611 220.77 66.7964 233.089 66.7455H243.287V62.0161C243.287 58.2021 242.29 55.1509 240.296 52.8625C238.354 50.5741 235.262 49.4298 231.019 49.4298C227.287 49.4298 224.348 50.3198 222.201 52.0997C220.106 53.8795 219.058 56.3205 219.058 59.4226L196.899 59.4226C196.899 54.6424 198.381 50.2181 201.346 46.1498C204.311 42.0815 208.502 38.9031 213.921 36.6147C219.339 34.2754 225.422 33.1058 232.169 33.1058C242.392 33.1058 250.494 35.6739 256.475 40.8101C262.506 45.8955 265.522 53.0659 265.522 62.3213V98.0969C265.573 105.928 266.672 111.853 268.819 115.87V117.167H246.43ZM228.105 101.835C231.377 101.835 234.393 101.123 237.153 99.6988C239.913 98.224 241.958 96.2661 243.287 93.8252V79.637H235.006C223.914 79.637 218.01 83.451 217.294 91.0791L217.218 92.3758C217.218 95.1219 218.189 97.3849 220.131 99.1648C222.074 100.945 224.732 101.835 228.105 101.835Z" fill="#00FFC4"/>
<path d="M329.162 55.3035C326.146 54.8966 323.488 54.6932 321.188 54.6932C312.805 54.6932 307.31 57.5156 304.703 63.1604V117.167L282.544 117.167V34.6314H303.476L304.089 44.4716C308.536 36.8944 314.696 33.1058 322.568 33.1058C325.021 33.1058 327.322 33.4363 329.468 34.0974L329.162 55.3035Z" fill="#00FFC4"/>
<path d="M370.029 84.0612L362.055 91.9944V117.167H339.896V0L362.055 0V64.9148L366.349 59.4226L387.587 34.6314H414.193L384.214 69.034L416.8 117.167L391.344 117.167L370.029 84.0612Z" fill="#00FFC4"/>
<path d="M424.928 106.335C424.928 102.826 426.103 99.9785 428.455 97.7918C430.857 95.6051 433.847 94.5117 437.425 94.5117C441.055 94.5117 444.045 95.6051 446.396 97.7918C448.799 99.9785 450 102.826 450 106.335C450 109.793 448.824 112.616 446.473 114.802C444.122 116.938 441.106 118.006 437.425 118.006C433.796 118.006 430.806 116.938 428.455 114.802C426.103 112.616 424.928 109.793 424.928 106.335Z" fill="#00FFC4"/>
</g>
</svg>
