<svg width="500" height="154" viewBox="0 0 500 154" fill="none" xmlns="http://www.w3.org/2000/svg">
<path d="M105.64 71.6476C105.64 83.2339 103.766 93.3152 100.017 101.891C96.2685 110.411 91.0717 117.255 84.4266 122.423L105.043 138.61L88.7715 153.007L62.3616 131.794C59.3514 132.305 56.2276 132.561 52.9903 132.561C42.7103 132.561 33.5378 130.09 25.4728 125.149C17.4078 120.208 11.1603 113.165 6.73028 104.021C2.30022 94.8202 0.0567956 84.2563 0 72.3292V66.1953C0 53.9842 2.18663 43.2498 6.55989 33.9922C10.9899 24.6777 17.2091 17.5498 25.2172 12.6086C33.2822 7.61061 42.4831 5.1116 52.8199 5.1116C63.1567 5.1116 72.3292 7.61061 80.3374 12.6086C88.4023 17.5498 94.6215 24.6777 98.9947 33.9922C103.425 43.2498 105.64 53.9558 105.64 66.1101V71.6476ZM79.741 66.0249C79.741 53.0187 77.4124 43.1362 72.7551 36.3776C68.0979 29.6189 61.4528 26.2396 52.8199 26.2396C44.2438 26.2396 37.6271 29.5905 32.9698 36.2924C28.3126 42.9375 25.9556 52.7063 25.8988 65.5989V71.6476C25.8988 84.313 28.2274 94.1387 32.8846 101.125C37.5419 108.11 44.2438 111.603 52.9903 111.603C61.5664 111.603 68.1547 108.252 72.7551 101.551C77.3556 94.7918 79.6842 84.9662 79.741 72.0736V66.0249Z" fill="#222222"/>
<path d="M177.969 121.486C171.892 128.869 163.486 132.561 152.752 132.561C142.869 132.561 135.315 129.721 130.09 124.042C124.922 118.362 122.281 110.041 122.167 99.0799V38.6778H146.788V98.228C146.788 107.826 151.161 112.626 159.908 112.626C168.257 112.626 173.993 109.729 177.117 103.936V38.6778H201.823V130.857H178.651L177.969 121.486Z" fill="#222222"/>
<path d="M273.812 130.857C272.676 128.642 271.852 125.887 271.341 122.593C265.377 129.238 257.625 132.561 248.083 132.561C239.053 132.561 231.556 129.948 225.592 124.723C219.685 119.498 216.732 112.91 216.732 104.958C216.732 95.1894 220.339 87.6924 227.552 82.4672C234.821 77.242 245.3 74.601 258.988 74.5442H270.319V69.2622C270.319 65.0026 269.211 61.5948 266.996 59.039C264.838 56.4832 261.402 55.2053 256.688 55.2053C252.542 55.2053 249.276 56.1992 246.89 58.1871C244.562 60.1749 243.398 62.9011 243.398 66.3656H218.777C218.777 61.0269 220.424 56.0856 223.718 51.542C227.012 46.9984 231.669 43.4486 237.69 40.8928C243.71 38.2802 250.469 36.9739 257.966 36.9739C269.325 36.9739 278.327 39.8421 284.972 45.5785C291.674 51.258 295.025 59.2662 295.025 69.603V109.559C295.081 118.305 296.303 124.922 298.688 129.409V130.857H273.812ZM253.45 113.733C257.085 113.733 260.436 112.938 263.503 111.348C266.57 109.701 268.842 107.514 270.319 104.788V88.9419H261.118C248.793 88.9419 242.233 93.2016 241.438 101.721L241.353 103.169C241.353 106.236 242.432 108.764 244.59 110.751C246.748 112.739 249.702 113.733 253.45 113.733Z" fill="#222222"/>
<path d="M365.735 61.7652C362.384 61.3108 359.431 61.0837 356.875 61.0837C347.561 61.0837 341.455 64.2358 338.559 70.5401V130.857H313.938V38.6778H337.195L337.877 49.6677C342.818 41.2052 349.662 36.9739 358.409 36.9739C361.135 36.9739 363.691 37.3431 366.076 38.0814L365.735 61.7652Z" fill="#222222"/>
<path d="M411.143 93.8831L402.283 102.743V130.857H377.662V0H402.283V72.4996L407.054 66.3656L430.653 38.6778H460.215L426.904 77.1L463.111 130.857H434.827L411.143 93.8831Z" fill="#222222"/>
<path d="M472.142 118.76C472.142 114.841 473.448 111.66 476.061 109.218C478.73 106.776 482.053 105.555 486.028 105.555C490.061 105.555 493.383 106.776 495.996 109.218C498.665 111.66 500 114.841 500 118.76C500 122.622 498.694 125.774 496.081 128.216C493.468 130.601 490.118 131.794 486.028 131.794C481.996 131.794 478.673 130.601 476.061 128.216C473.448 125.774 472.142 122.622 472.142 118.76Z" fill="#222222"/>
</svg>
