<svg width="55" height="110" viewBox="0 0 55 110" fill="none" xmlns="http://www.w3.org/2000/svg">
<path fill-rule="evenodd" clip-rule="evenodd" d="M0 0H55V88.1H43.7968V99.4192L44.3438 98.7272L47.0494 95.6039H50.4386L46.6196 99.9381L50.7707 106.002H47.528L44.8127 101.831L43.7968 102.831V106.002H40.9741V88.1H0V0ZM17.0352 68.7338C12.5558 64.2182 12.0002 57.2449 15.3686 52.1197L18.5523 55.3291C16.8346 58.6466 17.3576 62.8363 20.1215 65.6225C23.5306 69.0592 29.0578 69.0592 32.4668 65.6225C35.8759 62.1859 35.8759 56.6141 32.4668 53.1775C29.4805 50.1671 24.8689 49.7937 21.4795 52.0574L18.3513 48.9039C23.4848 44.9458 30.8581 45.3332 35.5531 50.0662C40.2482 54.7992 40.6325 62.2321 36.7061 67.4071L41.8 72.5421H35.6274L33.5161 70.4139C28.432 73.8094 21.5146 73.2494 17.0352 68.7338Z" fill="#222222"/>
<path fill-rule="evenodd" clip-rule="evenodd" d="M0 100.707C0 99.0732 0.367903 97.7822 1.10371 96.834C1.84603 95.8858 2.86184 95.4117 4.15113 95.4117C5.28414 95.4117 6.186 95.8378 6.85669 96.6898L7.04227 95.6039H9.52317V110H6.69064V105.108C6.03948 105.832 5.18647 106.194 4.1316 106.194C2.87486 106.194 1.87208 105.714 1.12325 104.753C0.374416 103.792 0 102.443 0 100.707ZM2.82277 100.909C2.82277 101.902 2.99858 102.658 3.3502 103.177C3.70834 103.696 4.20973 103.955 4.85438 103.955C5.72042 103.955 6.3325 103.616 6.69064 102.937V98.6407C6.33902 97.9872 5.73344 97.6605 4.87392 97.6605C4.22275 97.6605 3.71811 97.92 3.35997 98.4389C3.00184 98.9579 2.82277 99.7811 2.82277 100.909Z" fill="#222222"/>
<path d="M18.0794 104.945C17.3826 105.778 16.4189 106.194 15.1882 106.194C14.0552 106.194 13.1892 105.874 12.5901 105.233C11.9976 104.593 11.6948 103.654 11.6818 102.418V95.6039H14.5045V102.321C14.5045 103.404 15.0059 103.946 16.0087 103.946C16.9659 103.946 17.6236 103.619 17.9817 102.965V95.6039H20.8142V106.002H18.1575L18.0794 104.945Z" fill="#222222"/>
<path fill-rule="evenodd" clip-rule="evenodd" d="M28.7844 105.07C28.843 105.442 28.9374 105.752 29.0677 106.002H31.9197V105.839C31.6462 105.333 31.5062 104.586 31.4997 103.6V99.0924C31.4997 97.9264 31.1156 97.023 30.3472 96.3823C29.5853 95.7352 28.5533 95.4117 27.2509 95.4117C26.3914 95.4117 25.6165 95.5591 24.9263 95.8538C24.2361 96.1421 23.7021 96.5425 23.3244 97.0551C22.9468 97.5676 22.758 98.125 22.758 98.7272H25.5807C25.5807 98.3364 25.7142 98.0289 25.9812 97.8046C26.2547 97.5804 26.6291 97.4683 27.1044 97.4683C27.6449 97.4683 28.0388 97.6124 28.2863 97.9007C28.5402 98.189 28.6672 98.5735 28.6672 99.054V99.6498H27.3681C25.7989 99.6562 24.5975 99.9541 23.764 100.544C22.937 101.133 22.5235 101.979 22.5235 103.081C22.5235 103.978 22.8621 104.721 23.5393 105.31C24.223 105.9 25.0826 106.194 26.1179 106.194C27.2119 106.194 28.1007 105.82 28.7844 105.07ZM27.8858 103.801C27.5342 103.981 27.15 104.071 26.7333 104.071C26.3035 104.071 25.9649 103.958 25.7175 103.734C25.47 103.51 25.3463 103.225 25.3463 102.879L25.3561 102.715C25.4472 101.754 26.1993 101.274 27.6123 101.274H28.6672V103.061C28.4979 103.369 28.2374 103.616 27.8858 103.801Z" fill="#222222"/>
<path d="M39.6066 98.2083C39.2225 98.157 38.8839 98.1314 38.5908 98.1314C37.5229 98.1314 36.8229 98.487 36.4909 99.1981V106.002H33.6681V95.6039H36.3346L36.4127 96.8436C36.9792 95.889 37.7639 95.4117 38.7667 95.4117C39.0792 95.4117 39.3722 95.4534 39.6457 95.5366L39.6066 98.2083Z" fill="#222222"/>
<path d="M51.8061 104.638C51.8061 104.195 51.9558 103.837 52.2554 103.561C52.5614 103.286 52.9423 103.148 53.3982 103.148C53.8605 103.148 54.2414 103.286 54.5409 103.561C54.847 103.837 55 104.195 55 104.638C55 105.073 54.8502 105.429 54.5507 105.704C54.2512 105.973 53.867 106.108 53.3982 106.108C52.9358 106.108 52.5549 105.973 52.2554 105.704C51.9558 105.429 51.8061 105.073 51.8061 104.638Z" fill="#222222"/>
</svg>
